<?xml version="1.0" standalone="no"?>
<!DOCTYPE svg PUBLIC "-//W3C//DTD SVG 20010904//EN"
 "http://www.w3.org/TR/2001/REC-SVG-20010904/DTD/svg10.dtd">
<svg version="1.0" xmlns="http://www.w3.org/2000/svg"
 width="1084.000000pt" height="1084.000000pt" viewBox="0 0 1084.000000 1084.000000"
 preserveAspectRatio="xMidYMid meet">
<metadata>
Created by potrace 1.14, written by Peter Selinger 2001-2017
</metadata>
<g transform="translate(0.000000,1084.000000) scale(0.100000,-0.100000)"
fill="#000000" stroke="none">
<path d="M2416 10723 c-1 -1 -105 -5 -232 -8 -355 -8 -669 -25 -774 -40 -75
-12 -75 -12 -79 -122 -6 -147 -4 -806 3 -1073 3 -129 6 -276 7 -326 0 -97 8
-121 33 -111 9 4 16 1 16 -6 0 -7 3 -8 8 -2 8 12 52 15 52 4 0 -4 12 -4 28 0
15 5 36 6 47 4 11 -2 169 -6 350 -8 390 -5 857 -12 1375 -21 206 -3 471 -6
587 -7 117 -1 213 -6 213 -10 0 -4 8 -3 19 2 10 6 21 8 24 4 4 -3 59 -7 124
-9 248 -7 493 -19 573 -28 117 -14 209 -28 270 -42 14 -3 36 -7 50 -10 14 -3
29 -9 35 -15 5 -5 16 -9 25 -9 44 0 166 -76 238 -149 216 -219 338 -426 408
-696 4 -16 8 -32 9 -35 2 -10 19 -106 21 -122 1 -10 2 -19 3 -20 16 -20 21
-385 8 -488 -5 -36 -10 -78 -12 -95 -2 -16 -4 -30 -5 -30 -2 0 -5 -15 -13 -60
-3 -16 -14 -60 -25 -97 -11 -37 -17 -70 -14 -73 3 -3 1 -5 -5 -5 -5 0 -10 -6
-10 -12 0 -7 -13 -44 -28 -83 -90 -226 -236 -433 -380 -539 -22 -17 -43 -35
-47 -40 -4 -6 -8 -7 -8 -3 0 5 -12 0 -27 -11 -47 -33 -169 -85 -184 -79 -3 1
-12 -3 -20 -9 -8 -6 -27 -15 -44 -19 -16 -4 -39 -9 -50 -12 -11 -3 -66 -13
-122 -23 -127 -23 -179 -28 -443 -45 -47 -2 -128 -8 -180 -11 -52 -4 -115 -8
-140 -9 -25 -2 -45 -4 -45 -5 0 -2 -45 -7 -103 -11 -24 -2 -45 -7 -48 -11 -3
-5 -10 -6 -15 -3 -16 11 -9 -11 12 -36 128 -149 888 -923 1135 -1156 86 -81
186 -168 197 -172 6 -2 17 -10 23 -16 50 -50 193 -114 246 -111 15 1 28 -2 28
-7 0 -4 3 -6 8 -4 4 3 24 8 44 11 20 3 56 13 80 22 24 8 49 16 56 16 6 1 12 5
12 10 0 4 9 8 20 8 11 0 20 5 20 10 0 6 6 10 13 10 13 0 17 2 177 87 131 70
284 162 288 174 2 5 9 9 14 9 11 0 154 105 228 166 19 16 91 85 160 154 124
123 216 233 301 360 24 36 46 67 49 70 3 3 13 20 23 38 9 17 25 47 35 64 9 18
22 36 27 40 7 5 7 8 0 8 -6 0 -6 3 1 8 38 25 231 497 269 657 3 11 18 72 35
135 16 63 32 129 35 145 2 17 7 40 10 53 11 49 15 68 20 102 3 20 7 46 10 59
2 12 7 52 11 89 3 37 8 81 9 97 14 132 24 479 15 515 0 3 -3 39 -5 81 -2 42
-7 100 -10 130 -4 30 -8 72 -10 94 -2 22 -8 67 -13 100 -6 33 -13 74 -16 90
-5 29 -21 113 -32 166 -2 15 -20 85 -40 155 -19 71 -36 136 -38 145 -9 34 -78
225 -107 294 -7 17 -13 32 -14 35 -13 38 -112 239 -155 315 -39 70 -94 160
-100 165 -4 3 -9 12 -12 20 -7 18 -159 222 -202 270 -65 72 -233 236 -271 265
-22 16 -44 34 -50 41 -12 14 -175 123 -227 153 -21 12 -55 31 -75 42 -43 24
-195 103 -203 104 -3 1 -26 11 -52 23 -92 42 -137 62 -143 62 -3 0 -24 9 -48
19 -23 10 -51 22 -62 25 -11 3 -49 16 -85 29 -109 40 -268 90 -330 102 -8 2
-16 4 -17 5 -2 2 -6 3 -10 4 -5 1 -30 7 -58 14 -76 19 -137 26 -325 37 -224
12 -288 15 -525 20 -132 3 -244 6 -250 7 -18 2 -1596 4 -1599 1z"/>
<path d="M1345 5970 c-47 -18 -57 -46 -62 -169 -2 -64 -4 -122 -4 -128 2 -31
2 -41 0 -89 -2 -27 1 -55 5 -62 4 -7 3 -12 -2 -12 -6 0 -9 -3091 -2 -3165 0
-5 -1 -45 -2 -88 -2 -44 0 -81 5 -84 4 -2 5 -9 1 -14 -9 -16 -10 -99 -1 -99 5
0 6 -4 3 -8 -6 -10 -7 -41 -6 -158 1 -44 0 -85 -1 -90 -1 -5 -1 -11 0 -14 2
-5 9 -917 10 -1395 l1 -210 198 -4 c353 -8 1235 -6 1302 2 69 9 89 19 88 45 0
9 3 64 7 122 3 58 8 150 10 205 2 55 4 100 5 100 1 0 3 61 5 135 2 74 7 212
10 305 3 94 7 260 10 370 2 110 7 286 10 390 5 195 15 681 20 975 1 91 3 170
5 175 1 6 1 12 0 15 -5 12 -5 60 0 60 3 0 5 11 5 25 0 14 -4 25 -8 25 -5 0 -5
5 -2 10 4 6 8 97 10 203 3 106 7 307 10 447 2 140 6 329 8 420 l4 164 -186
189 c-543 552 -1341 1344 -1341 1331 0 -2 -11 7 -24 19 -65 61 -71 64 -91 57z"/>
<path d="M3876 4373 c-1 -1 -96 -3 -211 -5 -116 -2 -216 -7 -222 -11 -6 -4
-14 -3 -18 3 -4 6 -11 8 -16 5 -5 -3 -46 -8 -91 -11 -107 -6 -123 -9 -123 -22
0 -19 266 -302 728 -776 76 -77 244 -249 372 -381 129 -132 336 -343 461 -470
776 -789 1079 -1097 1317 -1338 147 -150 427 -434 622 -632 195 -198 415 -422
489 -497 l136 -136 772 4 c977 5 1136 10 1308 40 54 10 62 21 44 56 -12 23
-144 187 -188 234 -6 6 -57 60 -112 120 -354 380 -1183 1229 -2547 2607 -320
324 -721 729 -890 900 l-308 312 -760 0 c-418 0 -762 -1 -763 -2z"/>
</g>
</svg>
